<svg id="Capa_1" data-name="Capa 1" xmlns="http://www.w3.org/2000/svg" viewBox="0 0 386.97 446.24"><defs><style>.cls-1{fill:#121510;}.cls-2{fill:#fff;}.cls-3{fill:#c9cecd;}.cls-4{fill:#4daf50;}.cls-5{fill:#fafafa;}</style></defs><path class="cls-1" d="M386.23,193.73a15.25,15.25,0,0,1,0-8.6A18.26,18.26,0,0,0,387,180a18,18,0,0,0-1.08-6.15,16.11,16.11,0,0,1-.78-8.87,17.74,17.74,0,0,0,.24-6h0a17.92,17.92,0,0,0-1.78-5.79,15.55,15.55,0,0,1-1.55-8.56,17.74,17.74,0,0,0-.39-6h0a18.28,18.28,0,0,0-2.16-5.25,17.4,17.4,0,0,1-2.75-8.81,17.86,17.86,0,0,0-1.08-6h0a18.45,18.45,0,0,0-2.79-5.06,17.89,17.89,0,0,1-3.8-8.52,18.06,18.06,0,0,0-1.82-5.9h0a19.11,19.11,0,0,0-3.85-5.19,16.17,16.17,0,0,1-4.45-7.66,18.39,18.39,0,0,0-2.58-5.67h0a19.59,19.59,0,0,0-4.55-4.75,16.65,16.65,0,0,1-5.43-7.11A18.74,18.74,0,0,0,343,63.39h0a20.51,20.51,0,0,0-5.16-4.2,17.09,17.09,0,0,1-6.36-6.41,19.45,19.45,0,0,0-4-4.92h0a21,21,0,0,0-5.79-3.6,16.83,16.83,0,0,1-7-5.48,19.75,19.75,0,0,0-4.73-4.5,21.62,21.62,0,0,0-6.29-2.91,16.61,16.61,0,0,1-7.52-4.53,20.31,20.31,0,0,0-5.34-4,21.77,21.77,0,0,0-6.67-2.19,16.34,16.34,0,0,1-7.9-3.58,20.66,20.66,0,0,0-5.86-3.4h0a21.86,21.86,0,0,0-6.91-1.43,16.27,16.27,0,0,1-8.19-2.66A21.38,21.38,0,0,0,249,6.83h0a22.62,22.62,0,0,0-7-.68,16.12,16.12,0,0,1-8.38-1.75A21.62,21.62,0,0,0,227,2.28a22.26,22.26,0,0,0-7.06.05,16.08,16.08,0,0,1-8.49-.86A21.94,21.94,0,0,0,204.56,0h0a22.06,22.06,0,0,0-7,.77,16.14,16.14,0,0,1-8.53,0,22.12,22.12,0,0,0-7-.74h0a21.83,21.83,0,0,0-6.83,1.46,16.19,16.19,0,0,1-8.49.89,22.16,22.16,0,0,0-13.65,2.1A16.24,16.24,0,0,1,144.7,6.3a22.24,22.24,0,0,0-7,.69h0a21.6,21.6,0,0,0-6.27,2.79,16.29,16.29,0,0,1-8.18,2.68,21.82,21.82,0,0,0-6.91,1.44h0a21,21,0,0,0-5.85,3.41,16.42,16.42,0,0,1-7.9,3.6,21.86,21.86,0,0,0-6.67,2.19,20.54,20.54,0,0,0-5.34,4A16.57,16.57,0,0,1,83,31.64a21.15,21.15,0,0,0-6.29,2.92h0A19.93,19.93,0,0,0,72,39.06a16.85,16.85,0,0,1-7,5.5,21,21,0,0,0-5.79,3.61h0a19.27,19.27,0,0,0-4,4.93,17.21,17.21,0,0,1-6.34,6.42,20.3,20.3,0,0,0-5.16,4.2h0a18.89,18.89,0,0,0-3.33,5.36A16.63,16.63,0,0,1,35,76.19,20,20,0,0,0,30.41,81h0a18.64,18.64,0,0,0-2.57,5.68,16.24,16.24,0,0,1-4.43,7.67,19.1,19.1,0,0,0-3.85,5.2h0a18.18,18.18,0,0,0-1.8,5.9A17.88,17.88,0,0,1,14,113.92,18.45,18.45,0,0,0,11.2,119a17.84,17.84,0,0,0-1.07,6,17.44,17.44,0,0,1-2.73,8.82,18.26,18.26,0,0,0-2.15,5.25h0a17.75,17.75,0,0,0-.38,6,15.45,15.45,0,0,1-1.54,8.56,18,18,0,0,0-1.76,5.79,17.55,17.55,0,0,0,.25,6,16.3,16.3,0,0,1-.76,8.9A17.93,17.93,0,0,0,.74,185.5a15.34,15.34,0,0,1,0,8.6,17.88,17.88,0,0,0,0,10.18,15.34,15.34,0,0,1,0,8.6,17.88,17.88,0,0,0,0,10.18,15.34,15.34,0,0,1,0,8.6,17.88,17.88,0,0,0,0,10.18,15.34,15.34,0,0,1,0,8.6A17.85,17.85,0,0,0,0,255.53a18,18,0,0,0,.74,5.11,15.48,15.48,0,0,1,.16,8.69,17.83,17.83,0,0,0,.72,12,15.21,15.21,0,0,1,1,8.56,17.86,17.86,0,0,0,0,6.23h0a18.17,18.17,0,0,0,1.87,5.41,17.7,17.7,0,0,1,2.33,9,17.6,17.6,0,0,0,.8,6.09h0a18.3,18.3,0,0,0,2.57,5.2,17.86,17.86,0,0,1,3.43,8.67,18,18,0,0,0,1.57,6h0a18.94,18.94,0,0,0,3.23,4.9,18,18,0,0,1,4.48,8.21,18.22,18.22,0,0,0,2.31,5.75h0a19.6,19.6,0,0,0,4.29,4.9,16.36,16.36,0,0,1,5,7.27,18.49,18.49,0,0,0,3,5.46h0a20.2,20.2,0,0,0,4.88,4.41,16.6,16.6,0,0,1,5.9,6.67,19,19,0,0,0,3.68,5.1,20.28,20.28,0,0,0,5.4,3.85,17,17,0,0,1,6.69,6,19.46,19.46,0,0,0,4.29,4.67h0a21,21,0,0,0,5.92,3.27,16.84,16.84,0,0,1,7.27,5.13,20.07,20.07,0,0,0,4.91,4.24h0a21.53,21.53,0,0,0,6.38,2.63,16.57,16.57,0,0,1,7.7,4.22,20.43,20.43,0,0,0,5.5,3.76h0a22,22,0,0,0,6.76,1.92,16.38,16.38,0,0,1,8,3.28,21,21,0,0,0,6,3.2,22.11,22.11,0,0,0,7.4,1.18,14.57,14.57,0,0,1,7.77,2.28,21.65,21.65,0,0,0,6.55,2.61,21.89,21.89,0,0,0,7.14.4,16,16,0,0,1,8.39,1.39,21.66,21.66,0,0,0,6.8,1.87h0a22.19,22.19,0,0,0,7.12-.38,16.08,16.08,0,0,1,8.48.46,22,22,0,0,0,7,1.13h.44a22.09,22.09,0,0,0,7-1.14,15.94,15.94,0,0,1,8.47-.48,22.19,22.19,0,0,0,7.12.36h0a21.8,21.8,0,0,0,6.79-1.88,16.07,16.07,0,0,1,8.39-1.41,22.45,22.45,0,0,0,7.14-.41h0a21.62,21.62,0,0,0,6.54-2.63,14.63,14.63,0,0,1,7.77-2.3,21.86,21.86,0,0,0,7.39-1.19h0a21,21,0,0,0,6-3.21,16.39,16.39,0,0,1,8-3.29,22,22,0,0,0,6.75-1.94h0A20.8,20.8,0,0,0,286.8,423a16.56,16.56,0,0,1,7.68-4.23,21.14,21.14,0,0,0,6.37-2.64h0a20,20,0,0,0,4.9-4.24,16.94,16.94,0,0,1,7.26-5.15,21.1,21.1,0,0,0,5.91-3.28h0a19.79,19.79,0,0,0,4.28-4.67,17,17,0,0,1,6.68-6,20.66,20.66,0,0,0,5.39-3.86,18.88,18.88,0,0,0,3.67-5.1,16.61,16.61,0,0,1,5.88-6.69,20.06,20.06,0,0,0,4.88-4.42h0a18.63,18.63,0,0,0,3-5.47,16.32,16.32,0,0,1,5-7.29A19.4,19.4,0,0,0,362,355a18.25,18.25,0,0,0,2.3-5.76,18.08,18.08,0,0,1,4.47-8.23,18.9,18.9,0,0,0,3.22-4.9,17.82,17.82,0,0,0,1.55-6,17.82,17.82,0,0,1,3.42-8.68,18.73,18.73,0,0,0,2.56-5.21h0a17.88,17.88,0,0,0,.78-6.1,17.72,17.72,0,0,1,2.3-9,18.17,18.17,0,0,0,1.87-5.41h0a17.85,17.85,0,0,0,0-6.23,15.12,15.12,0,0,1,.94-8.56,18.16,18.16,0,0,0,1.39-6.12h0a18,18,0,0,0-.7-5.85,15.41,15.41,0,0,1,.15-8.67,17.94,17.94,0,0,0,0-10.2,15.25,15.25,0,0,1,0-8.6,18.26,18.26,0,0,0,.73-5.09,17.9,17.9,0,0,0-.74-5.09,15.25,15.25,0,0,1,0-8.6,18.26,18.26,0,0,0,.73-5.09,17.9,17.9,0,0,0-.74-5.09,15.25,15.25,0,0,1,0-8.6,18.26,18.26,0,0,0,.73-5.09A17.9,17.9,0,0,0,386.23,193.73Z"/><polygon class="cls-2" points="118.87 43.93 118.87 43.93 118.87 43.93 118.87 43.93"/><path class="cls-2" d="M353.78,208.14a21.09,21.09,0,0,0,6.1-14.86h0c0-.07,0-.13,0-.2s0-.14,0-.21A21.11,21.11,0,0,0,353.74,178,21.14,21.14,0,0,0,357,162.28h0a21.15,21.15,0,0,0-8.77-13.49,21.14,21.14,0,0,0,.29-16.1h0a21.12,21.12,0,0,0-11.11-11.63,21.15,21.15,0,0,0-2.68-15.86h0a21.13,21.13,0,0,0-13.06-9.39,21.16,21.16,0,0,0-20.09-21.93A21.16,21.16,0,0,0,277.82,56,21.09,21.09,0,0,0,267.21,43.9h0a21.08,21.08,0,0,0-16-1.13,21.14,21.14,0,0,0-12.67-9.94h0a21.14,21.14,0,0,0-16,1.86,21.08,21.08,0,0,0-14.27-7.42h0a21.12,21.12,0,0,0-15.56,4.93,21.15,21.15,0,0,0-29.36,3,21.13,21.13,0,0,0-28.42,7.85A21.15,21.15,0,0,0,108,55.9a21.11,21.11,0,0,0-15.69,3.93h0A21.12,21.12,0,0,0,84,73.74a21.11,21.11,0,0,0-14.65,7h0A21.08,21.08,0,0,0,64,96a21.09,21.09,0,0,0-13,9.67h0a21.1,21.1,0,0,0-2.36,15.95,21.12,21.12,0,0,0-10.85,11.88h0a21.1,21.1,0,0,0,.61,16,21.15,21.15,0,0,0-5.09,29.18,21.12,21.12,0,0,0-6,14.8h0a21.11,21.11,0,0,0,6.05,14.78,21.13,21.13,0,0,0,5.17,29.16,21.08,21.08,0,0,0-.58,16h0A21.12,21.12,0,0,0,48.81,265.3a21.15,21.15,0,0,0,2.4,15.95h0a21.1,21.1,0,0,0,13,9.64,21.17,21.17,0,0,0,20.11,22.19A21.11,21.11,0,0,0,92.69,327h0a21.07,21.07,0,0,0,15.7,3.9,21.08,21.08,0,0,0,10.86,11.94h0a21.09,21.09,0,0,0,16,.84,21.07,21.07,0,0,0,12.7,9.69h0a21.1,21.1,0,0,0,15.73-1.9,21.05,21.05,0,0,0,13.9,7.42h0a21.05,21.05,0,0,0,15.47-4.49,21.1,21.1,0,0,0,15.57,4.89h0a21.13,21.13,0,0,0,14.26-7.45,21.17,21.17,0,0,0,28.63-8.15,21.14,21.14,0,0,0,26.62-13.29,21.07,21.07,0,0,0,15.55-4.1h0a21.12,21.12,0,0,0,8.17-13.84,21.13,21.13,0,0,0,14.53-6.88h0a21,21,0,0,0,5.5-15.1,21.11,21.11,0,0,0,13-9.42h0a21.08,21.08,0,0,0,2.64-15.87,21.13,21.13,0,0,0,11.09-11.67h0a21.15,21.15,0,0,0-.33-16.09,21.12,21.12,0,0,0,8.73-13.52h0A21.09,21.09,0,0,0,353.78,208.14Z"/><rect class="cls-3" x="91.39" y="72.56" width="25.48" height="8.04" transform="translate(-22.14 48.95) rotate(-23.99)"/><rect class="cls-3" x="195.31" y="299.51" width="25.48" height="8.04" transform="translate(-105.44 110.81) rotate(-23.99)"/><rect class="cls-3" x="122.14" y="314.64" width="25.48" height="8.04" transform="translate(-117.91 82.37) rotate(-23.99)"/><rect class="cls-3" x="76.79" y="260.55" width="25.48" height="8.04" transform="translate(-99.84 59.26) rotate(-23.99)"/><rect class="cls-3" x="298.27" y="189.24" width="25.48" height="8.04" transform="translate(-51.71 143.15) rotate(-23.99)"/><rect class="cls-3" x="84.83" y="104.34" width="25.48" height="8.04" transform="translate(24.39 -17.76) rotate(11.88)"/><rect class="cls-3" x="95.47" y="285.56" width="25.48" height="8.04" transform="translate(61.92 -16.07) rotate(11.88)"/><rect class="cls-3" x="65.21" y="132.3" width="25.48" height="8.04" transform="translate(157.03 0.66) rotate(60)"/><rect class="cls-3" x="125.12" y="79.56" width="25.48" height="8.04" transform="matrix(0.3, -0.95, 0.95, 0.3, 17.14, 190.45)"/><rect class="cls-3" x="311.43" y="250.24" width="25.48" height="8.04" transform="translate(223.68 653.8) rotate(-113.99)"/><rect class="cls-3" x="167.4" y="328.74" width="25.48" height="8.04" transform="translate(-191.08 406.08) rotate(-72.74)"/><rect class="cls-3" x="52.33" y="241.76" width="25.48" height="8.04" transform="translate(-188.95 235.01) rotate(-72.74)"/><rect class="cls-3" x="67.21" y="206.57" width="25.48" height="8.04" transform="translate(-49.32 395.06) rotate(-124.19)"/><rect class="cls-3" x="39.3" y="202.6" width="25.48" height="8.04" transform="translate(-160.72 195.02) rotate(-72.74)"/><rect class="cls-3" x="280.65" y="242.05" width="25.48" height="8.04" transform="translate(-28.64 453.26) rotate(-72.74)"/><rect class="cls-3" x="189.52" y="48.42" width="25.48" height="8.04" transform="translate(24.66 -57.64) rotate(17.26)"/><rect class="cls-3" x="242.15" y="294.06" width="25.48" height="8.04" transform="translate(99.89 -62.19) rotate(17.26)"/><rect class="cls-3" x="317.41" y="212.77" width="25.48" height="8.04" transform="translate(79.17 -88.17) rotate(17.26)"/><rect class="cls-3" x="217.77" y="72.56" width="25.48" height="8.04" transform="translate(7.41 172.63) rotate(-41.67)"/><rect class="cls-3" x="282.23" y="138.64" width="25.48" height="8.04" transform="translate(209.28 458.91) rotate(-100.65)"/><rect class="cls-3" x="289.95" y="106.09" width="25.48" height="8.04" transform="translate(592.46 250.73) rotate(-174.11)"/><rect class="cls-3" x="253.94" y="82.29" width="25.48" height="8.04" transform="translate(231.14 364.34) rotate(-100.65)"/><rect class="cls-3" x="152.06" y="62.17" width="25.48" height="8.04" transform="translate(234.53 229.52) rotate(-135)"/><rect class="cls-3" x="220.08" y="320.22" width="25.48" height="8.04" transform="translate(168.17 718.14) rotate(-135)"/><rect class="cls-3" x="274.09" y="283.34" width="25.48" height="8.04" transform="translate(286.45 693.38) rotate(-135)"/><rect class="cls-3" x="144.18" y="295.99" width="25.48" height="8.04" transform="translate(55.74 623.11) rotate(-135)"/><rect class="cls-3" x="48.1" y="162.14" width="25.48" height="8.04" transform="translate(-13.64 326.68) rotate(-135)"/><rect class="cls-3" x="314.66" y="160.46" width="25.48" height="8.04" transform="translate(636.18 361.72) rotate(-174.11)"/><path class="cls-4" d="M286.66,201a19,19,0,0,0,2.94-10.14h0s0-.1,0-.15,0-.11,0-.17h0a18.86,18.86,0,0,0-3-10.13,18.94,18.94,0,0,0,.68-10.56h0a18.92,18.92,0,0,0-5.1-9.29,19,19,0,0,0-1.62-10.47h0a19,19,0,0,0-7-8,18.94,18.94,0,0,0-3.83-9.86h0a19,19,0,0,0-8.52-6.27,18.93,18.93,0,0,0-5.85-8.8h0a18.87,18.87,0,0,0-9.66-4.31,19,19,0,0,0-18-9.48,19,19,0,0,0-19.62-5.39,19,19,0,0,0-10-3.46h0a19,19,0,0,0-10.54,2.56A18.92,18.92,0,0,0,168,100.46a18.91,18.91,0,0,0-10.4.87h0a18.86,18.86,0,0,0-8.46,6.37,18.9,18.9,0,0,0-10.19,3.14h0A19,19,0,0,0,132,119a19,19,0,0,0-14.09,15,19,19,0,0,0-7.73,7.37h0a19,19,0,0,0-2.53,10.31,19.07,19.07,0,0,0-5.87,8.79h0a18.93,18.93,0,0,0-.26,10.51,18.91,18.91,0,0,0-2,20,18.94,18.94,0,0,0-1.84,10.3h0a18.92,18.92,0,0,0,3.92,9.72,18.89,18.89,0,0,0,6.2,19.27,18.91,18.91,0,0,0,2.55,10.31h0a18.92,18.92,0,0,0,7.76,7.34,19,19,0,0,0,4.86,9.56h0a19,19,0,0,0,9.28,5.4,19,19,0,0,0,6.94,8.18h0a18.94,18.94,0,0,0,10.19,3.1,18.92,18.92,0,0,0,18.88,7.18,18.81,18.81,0,0,0,9.34,4.41h0a18.84,18.84,0,0,0,10.28-1.16,18.94,18.94,0,0,0,10.55,2.53h0a18.87,18.87,0,0,0,10-3.5,18.94,18.94,0,0,0,10.59.14h0a19,19,0,0,0,9-5.58,19.08,19.08,0,0,0,10.38-2.16h0a19,19,0,0,0,7.58-7.38,18.86,18.86,0,0,0,9.64-4.34h0a18.85,18.85,0,0,0,5.82-8.82,18.94,18.94,0,0,0,8.5-6.3h0a19,19,0,0,0,3.8-9.88,19,19,0,0,0,7-8h0a19,19,0,0,0,1.59-10.48,19,19,0,0,0,5.07-9.31h0A19,19,0,0,0,286.66,201Z"/><path class="cls-5" d="M224.74,241.48a47.23,47.23,0,0,1-15.58-2.54c-12.93-4-25-9.72-35.35-18.63a143.27,143.27,0,0,1-24.24-27.44c-4.64-6.69-8.53-13.73-9.79-21.85-1.71-11,1.12-20.69,9.85-28,4-3.39,9.09-3.1,14-2.06,1.28.26,1.92,1.34,2.44,2.44,3,6.31,5.41,12.85,8.17,19.25a12.18,12.18,0,0,0,.63,1.48c1.94,3.32,1,6.16-1.38,8.8-1.78,2-3.59,4-5.31,6.05s-1.81,3.26-.54,5.38c8.45,14.05,19.79,24.86,35.14,31.12,4.25,1.74,6.17,1.26,9-2.35,1.84-2.35,3.58-4.77,5.36-7.16,2.3-3.1,4.36-3.67,7.91-2.13,6.89,3,13.54,6.49,20.32,9.72a3.9,3.9,0,0,1,2.45,4.12c-.32,6.08-1.25,11.94-6.17,16.22C236.24,238.66,229.92,241.3,224.74,241.48Z"/></svg>